<svg xmlns="http://www.w3.org/2000/svg" xmlns:xlink="http://www.w3.org/1999/xlink" viewBox="0 0 7865.88 1483.03"><defs><style>.cls-1{fill:none;}.cls-2{clip-path:url(#clip-path);}.cls-3{fill:#f79d46;}.cls-4{fill:#f78846;}.cls-5{fill:#f7aa46;}.cls-6{fill:#f7cb1d;}.cls-7{fill:#f9dc35;}.cls-8{clip-path:url(#clip-path-2);}.cls-9{clip-path:url(#clip-path-3);}.cls-10{fill:#facf30;}.cls-11{fill:#f7d548;}.cls-12{clip-path:url(#clip-path-4);}.cls-13{fill:#d0c24e;}.cls-14{fill:#c5f9a9;}.cls-15{clip-path:url(#clip-path-5);}.cls-16{fill:#75f01d;}.cls-17{fill:#c8f9a9;}.cls-18{fill:#63f4cd;}.cls-19{fill:#b2f760;}.cls-20{clip-path:url(#clip-path-6);}.cls-21{fill:#74f01f;}.cls-22{fill:#3fe522;}</style><clipPath id="clip-path"><path class="cls-1" d="M444.66,466.75V677.18H956.72V989.33H444.66v392.8H30.81V154.6h997.81V466.75Z"/></clipPath><clipPath id="clip-path-2"><path class="cls-1" d="M1395.12,1257.63q-157.83-152.57-157.83-427.89V154.6h413.85V817.47q0,135.06,48.23,196.41t139.41,61.37q91.17,0,139.41-61.37t48.23-196.41V154.6h406.84V829.74q0,275.34-157.83,427.89t-440.16,152.56Q1552.91,1410.19,1395.12,1257.63Z"/></clipPath><clipPath id="clip-path-3"><path class="cls-1" d="M2959.35,475.52H2599.86V154.6H3732.69V475.52H3373.2v906.61H2959.35Z"/></clipPath><clipPath id="clip-path-4"><path class="cls-1" d="M4057.11,1257.63q-157.83-152.57-157.83-427.89V154.6h413.85V817.47q0,135.06,48.23,196.41t139.41,61.37q91.17,0,139.42-61.37t48.22-196.41V154.6h406.84V829.74q0,275.34-157.83,427.89t-440.15,152.56Q4214.9,1410.19,4057.11,1257.63Z"/></clipPath><clipPath id="clip-path-5"><path class="cls-1" d="M5898.4,1073.5H5786.17v308.63H5372.31V154.6h591q170.07,0,296.36,56.12T6454.3,372.05q68.39,105.22,68.39,245.51,0,131.52-59.63,229.72t-171.85,156.07L6549,1382.13H6107.08Zm164.84-562q-42.09-37.68-126.26-37.7H5786.17v287.6H5937q84.17,0,126.26-37.71t42.08-106.09Q6105.32,549.16,6063.24,511.46Z"/></clipPath><clipPath id="clip-path-6"><path class="cls-1" d="M7787,1070v312.14H6766.43V154.6h997.81V466.75h-591V610.54h519.07V908.66H7173.27V1070Z"/></clipPath></defs><title>Future vector svg</title><g id="Layer_2" data-name="Layer 2"><g id="Layer_4" data-name="Layer 4"><g class="cls-2"><polygon class="cls-3" points="0 515.5 0 1483.03 111.79 1483.03 291.66 612.72 0 515.5"/><polygon class="cls-4" points="1048.03 864.75 291.92 612.72 112.06 1483.03 1048.03 1483.03 1048.03 864.75"/><polygon class="cls-5" points="0 0 0 514.45 293.55 612.3 171.86 0 0 0"/><polygon class="cls-3" points="1048.03 294.91 296.32 613.92 1048.03 864.49 1048.03 294.91"/><polygon class="cls-6" points="172.38 0 293.87 611.24 807.31 0 172.38 0"/><polygon class="cls-7" points="807.04 0 293.61 611.24 293.82 612.3 296.32 613.13 1048.03 294.13 1048.03 0 807.04 0"/></g><g class="cls-8"><polygon class="cls-4" points="1204.04 907.98 1204.04 1482.77 2457.12 1482.77 2457.12 1369.11 1204.04 907.98"/><polygon class="cls-7" points="1204.04 0.79 1204.04 257.96 1696.71 0.79 1204.04 0.79"/><polygon class="cls-3" points="2457.12 0.79 1696.71 0.79 1204.04 257.96 1204.04 907.98 2457.12 1369.11 2457.12 0.79"/></g><g class="cls-9"><rect class="cls-3" x="2537.69" y="0.79" width="89.34" height="1481.98"/><polygon class="cls-10" points="3789.91 0.79 2627.03 0.79 2627.03 1434.27 3789.91 916.03 3789.91 0.79"/><polygon class="cls-11" points="2627.03 1434.27 2627.03 1482.77 3789.91 1482.77 3789.91 916.03 2627.03 1434.27"/></g><g class="cls-12"><polygon class="cls-10" points="4571.73 0.79 3838.49 0.79 3838.49 894.38 5194.54 290.04 5194.54 285.76 4571.73 0.79"/><polygon class="cls-13" points="5194.54 0.79 4571.73 0.79 5194.54 285.76 5194.54 0.79"/><polygon class="cls-11" points="5194.54 290.04 3838.49 894.38 3838.49 1482.77 4566.57 1482.77 5194.54 369.43 5194.54 290.04"/><polygon class="cls-14" points="5194.54 369.43 4566.57 1482.77 5194.54 1482.77 5194.54 369.43"/></g><g class="cls-15"><polygon class="cls-16" points="6572.68 672.3 5678.39 1482.77 6572.68 1482.77 6572.68 672.3"/><polygon class="cls-17" points="5350.29 1482.77 5563.23 1482.77 5350.29 711.58 5350.29 1482.77"/><polygon class="cls-18" points="6572.68 0.79 5350.29 0.79 5350.29 278.86 6572.68 274.94 6572.68 0.79"/><polygon class="cls-19" points="6572.68 274.94 5350.29 278.86 5350.29 711.58 5563.23 1482.77 5678.39 1482.77 6572.68 672.3 6572.68 274.94"/></g><g class="cls-20"><polygon class="cls-18" points="6853.51 0.79 6695.4 0.79 6695.4 281.08 7116.97 279.75 6853.51 0.79"/><polygon class="cls-17" points="7865.88 0.79 6853.51 0.79 7117.35 280.16 7865.88 483.75 7865.88 0.79"/><polygon class="cls-21" points="7865.88 483.75 7117.35 280.16 7865.88 1072.71 7865.88 483.75"/><polygon class="cls-19" points="6695.4 281.08 6695.4 566.72 7047.41 279.97 6695.4 281.08"/><polygon class="cls-16" points="7047.41 279.97 6695.4 566.72 6695.4 1482.77 7350.49 1482.77 7047.85 279.97 7047.41 279.97"/><polygon class="cls-22" points="7865.88 1072.71 7116.97 279.75 7047.85 279.97 7350.49 1482.77 7865.88 1482.77 7865.88 1072.71"/></g></g></g></svg>