<svg xmlns="http://www.w3.org/2000/svg" xmlns:xlink="http://www.w3.org/1999/xlink" viewBox="0 0 5253.51 1353.08"><defs><style>.cls-1{fill:none;}.cls-2{clip-path:url(#clip-path);}.cls-3{fill:#f84b92;}.cls-4{fill:#db7ec6;}.cls-5{fill:#e182c7;}.cls-6{fill:#f05eb9;}.cls-7{fill:#f568b4;}.cls-8{fill:#fa6e90;}.cls-9{fill:#e175c2;}.cls-10{fill:#f98bba;}.cls-11{fill:#f161b9;}.cls-12{fill:#f5a1cf;}.cls-13{fill:#ea9bd2;}.cls-14{clip-path:url(#clip-path-2);}.cls-15{fill:#d298d2;}.cls-16{fill:#a079c8;}.cls-17{fill:#ed9cd1;}.cls-18{fill:#9c75c7;}.cls-19{fill:#c787cc;}.cls-20{fill:#cd84ca;}.cls-21{fill:#dc85ca;}.cls-22{fill:#617ecd;}.cls-23{fill:#8d88d0;}.cls-24{clip-path:url(#clip-path-3);}.cls-25{fill:#88a0db;}.cls-26{fill:#2d93d8;}.cls-27{fill:#1882cf;}.cls-28{fill:#0a7fcd;}.cls-29{fill:#0b7ccc;}.cls-30{clip-path:url(#clip-path-4);}.cls-31{fill:#0072ca;}.cls-32{fill:#00b9ea;}.cls-33{fill:#0a9fde;}.cls-34{fill:#1782d0;}.cls-35{fill:#53e0f4;}.cls-36{fill:#0082d0;}.cls-37{fill:#1ca5e2;}.cls-38{fill:#0090d5;}.cls-39{fill:#00c1ee;}</style><clipPath id="clip-path"><path class="cls-1" d="M925.65,181.83Q1051.89,238,1120.27,343.14t68.38,245.47q0,140.31-68.38,245.48T925.65,995.4q-126.24,56.13-296.32,56.1H452.24v301.58H38.44V125.72H629.33Q799.39,125.72,925.65,181.83ZM729.27,694.69Q771.36,657,771.35,588.61T729.27,482.53Q687.2,444.85,603,444.84H452.24V732.39H603Q687.2,732.39,729.27,694.69Z"/></clipPath><clipPath id="clip-path-2"><path class="cls-1" d="M2186.32,1139.17h-466.4l-82.41,213.91h-420.8L1753.24,125.72H2160l536.53,1227.36H2268.73Zm-114-298.07L1953.12,532.51,1833.89,841.1Z"/></clipPath><clipPath id="clip-path-3"><path class="cls-1" d="M3057.84,446.59H2698.4V125.72H3831.08V446.59H3471.64v906.49h-413.8Z"/></clipPath><clipPath id="clip-path-4"><path class="cls-1" d="M5233.68,125.72V1353.08h-413.8V900.71H4437.65v452.37h-413.8V125.72h413.8V560.56h382.23V125.72Z"/></clipPath></defs><title>Path vector svg</title><g id="Layer_2" data-name="Layer 2"><g id="Layer_4" data-name="Layer 4"><g class="cls-2"><polygon class="cls-3" points="448.37 448 448.37 448 755.42 0 0 0 0 611.62 448.37 448 448.37 448"/><polygon class="cls-4" points="1002.85 332.38 1199.67 220.2 1199.67 0 827.07 0 1002.85 332.38 1002.85 332.38"/><polygon class="cls-5" points="1002.85 332.38 1199.67 563.05 1199.67 220.2 1002.85 332.38"/><polygon class="cls-6" points="448.37 448 1002.85 332.38 1002.85 332.38 1002.85 332.38 827.07 0 755.42 0 448.37 448 448.37 448"/><polygon class="cls-7" points="634.77 924.62 448.37 448 0 611.62 0 644.77 634.18 925.01 634.77 924.62"/><polygon class="cls-8" points="634.18 925.01 0 644.77 0 1351.16 634.18 925.01"/><polygon class="cls-1" points="634.64 924.28 634.18 925.01 634.77 924.62 634.64 924.28"/><polygon class="cls-9" points="1002.85 332.38 448.37 448 634.64 924.28 1002.97 332.51 1002.85 332.38"/><polygon class="cls-10" points="634.64 924.28 634.77 924.62 634.18 925.01 0 1351.16 0 1353.08 732.21 1353.08 635.24 923.31 634.64 924.28"/><polygon class="cls-11" points="1199.67 563.05 1002.97 332.51 636.04 922.03 1199.67 893.01 1199.67 563.05"/><polygon class="cls-12" points="1199.67 1353.08 1199.67 1098.04 883.79 1353.08 1199.67 1353.08"/><polygon class="cls-13" points="636.04 922.03 635.24 923.31 732.21 1353.08 883.79 1353.08 1199.67 1098.04 1199.67 893.01 636.04 922.03"/></g><g class="cls-14"><polygon class="cls-4" points="1208.84 0 1208.84 220.2 1590.95 0 1208.84 0"/><polygon class="cls-6" points="1453.52 875.07 1208.84 574.33 1208.84 893.01 1454.4 876.37 1453.52 875.07"/><polygon class="cls-15" points="2301.49 1353.08 2635.46 1353.08 2538.89 1098.04 2301.49 1353.08"/><polygon class="cls-16" points="2538.89 1098.04 2635.46 1353.08 2696.57 1353.08 2696.57 1031.5 2538.89 1098.04"/><polygon class="cls-17" points="2538.89 1098.04 1847.03 1353.08 2301.49 1353.08 2538.89 1098.04"/><polygon class="cls-18" points="2657.87 0 1781.62 0 2236.34 659.34 2657.87 0"/><polygon class="cls-19" points="1792.8 1353.08 1847.03 1353.08 2538.89 1098.04 2236.34 659.34 1792.8 1353.08"/><polygon class="cls-5" points="1590.95 0 1208.84 220.2 1208.84 574.33 1453.52 875.07 1453.72 875.37 1713.4 0 1590.95 0"/><polygon class="cls-13" points="1208.84 893.01 1208.84 1092.14 1452.44 876.5 1208.84 893.01"/><polygon class="cls-12" points="1454.4 876.37 1452.44 876.5 1208.84 1092.14 1208.84 1353.08 1776.71 1353.08 1454.4 876.37"/><polygon class="cls-20" points="1781.62 0 1713.4 0 1453.72 875.37 1454.17 876.02 2236.34 659.34 1781.62 0"/><polygon class="cls-21" points="1454.17 876.02 1776.71 1353.08 1792.8 1353.08 2236.34 659.34 1454.17 876.02"/><polygon class="cls-22" points="2696.57 0 2657.87 0 2236.34 659.34 2696.57 673.63 2696.57 0"/><polygon class="cls-23" points="2236.34 659.34 2538.89 1098.04 2696.57 1031.5 2696.57 673.63 2236.34 659.34"/></g><g class="cls-24"><polygon class="cls-1" points="3358.93 708.09 3358.73 708.19 3358.82 708.3 3358.93 708.09"/><polygon class="cls-16" points="3358.73 708.19 2700.24 1030.6 2700.24 1353.08 3054.75 1353.08 3358.82 708.3 3358.73 708.19"/><polygon class="cls-25" points="3845.54 1278.19 3358.82 708.3 3054.75 1353.08 3845.54 1353.08 3845.54 1278.19"/><polygon class="cls-26" points="3845.54 604.06 3358.82 708.3 3845.54 1278.19 3845.54 604.06"/><polygon class="cls-23" points="3358.52 708.29 2700.24 673.73 2700.24 1030.6 3358.52 708.29"/><polygon class="cls-22" points="3358.73 708.19 2753.9 0 2700.24 0 2700.24 673.73 3358.52 708.29 3358.73 708.19"/><polygon class="cls-27" points="2844.87 0 2753.9 0 3358.82 708.3 3845.54 604.06 3845.54 398.94 2844.87 0"/><polygon class="cls-28" points="3845.54 0 3685.24 0 3845.54 150.85 3845.54 0"/><polygon class="cls-29" points="3685.24 0 2844.87 0 3845.54 398.94 3845.54 150.85 3685.24 0"/></g><g class="cls-30"><polygon class="cls-31" points="5253.51 345.02 5253.51 0 3993.01 0 4919.64 183.73 5253.51 345.02"/><polygon class="cls-32" points="3920.06 1353.08 4595.19 1353.08 4518.7 972.72 3920.06 1353.08"/><polygon class="cls-33" points="4518.52 971.81 4232.94 517.16 3925.31 1349.75 4518.7 972.72 4518.52 971.81"/><polygon class="cls-26" points="3920.06 587.01 3920.06 1353.08 3925.31 1349.75 4232.94 517.16 3920.06 587.01"/><polygon class="cls-29" points="4223.58 502.27 3920.06 209.72 3920.06 421.28 4232.94 517.16 4223.58 502.27"/><polygon class="cls-34" points="4232.94 517.16 3920.06 421.28 3920.06 587.01 4232.94 517.16"/><polygon class="cls-28" points="4919.64 183.73 3993.01 0 3920.06 0 3920.06 209.72 4223.58 502.27 4232.94 517.16 4920.53 184.16 4919.64 183.73"/><polygon class="cls-29" points="4232.94 517.16 4518.52 971.81 4920.53 184.16 4232.94 517.16"/><polygon class="cls-35" points="5003.99 1119.28 4815.15 1353.08 5095 1353.08 5003.99 1119.28"/><polygon class="cls-36" points="5253.51 345.02 4920.53 184.16 5003.99 1119.28 5253.51 1102.34 5253.51 345.02"/><polygon class="cls-37" points="5003.99 1119.28 5095 1353.08 5253.51 1353.08 5253.51 1102.34 5003.99 1119.28"/><polygon class="cls-38" points="4518.52 971.81 5003.99 1119.28 4920.53 184.16 4518.52 971.81"/><polygon class="cls-39" points="4595.19 1353.08 4815.15 1353.08 5003.99 1119.28 4518.52 971.81 4595.19 1353.08"/></g></g></g></svg>